<?xml version="1.0" encoding="utf-8" ?><svg xmlns="http://www.w3.org/2000/svg" xmlns:xlink="http://www.w3.org/1999/xlink" width="1365" height="1365" viewBox="341 0 1365 1365"><path fill="#083695" d="M0 0L2048 0L2048 348.758L2048 367.349L2048 1365L0 1365L0 1233.17L0 1185.01L0 0Z"/><path fill="#042B80" d="M0 1185.01C6.97178 1193.6 -0.105576 1191.69 0.943393 1200L2.22398 1201.7L7.0454 1201.97C10.6899 1206.89 3.40791 1211.59 2.37635 1216.54C1.11972 1222.58 5.56302 1229.02 0 1233.17L0 1185.01Z"/><path fill="#042B80" d="M2048 367.349C2047.24 367.242 2046.49 367.135 2045.73 367.028C2042.28 358.179 2044.16 356.717 2036.79 350.303L2036.35 349.92L2036.88 348.282C2042.22 347.218 2041.68 350.054 2048 348.758L2048 367.349Z"/><path fill="#FDFDFD" d="M1022.69 483.582C1033.4 482.709 1041.41 482.666 1052.2 482.766C1084 483.364 1115.27 491.042 1143.74 505.242C1171.27 519.787 1192.53 537.031 1210.45 562.435L1215.41 570.739C1218.23 576.048 1221.03 581.479 1224.14 586.618C1230.09 588.487 1230.45 607.126 1236.3 612.197C1237.2 612.978 1237.06 624.642 1237.17 627.561L1238.64 624.307L1239.87 623.997C1241.65 630.982 1236.25 633.883 1238.05 640.754L1240.18 638.798L1239.43 639.468L1240.24 638.815C1241.87 643.775 1238.91 647.787 1239.29 652.493C1239.43 654.312 1242.45 661.274 1243.3 663.276C1241.74 665.442 1241.72 665.602 1239.7 667.261L1237.44 665.219C1236.94 674.751 1226.37 716.058 1219.64 721.319L1218.42 721.028C1218.26 721.261 1195.57 758.556 1196.18 756.263C1195.8 762.055 1187.81 771.079 1183.69 775.322C1158.78 806.314 1126.31 830.368 1089.41 845.167C932.804 907.032 757.538 787.999 827.81 613.149C849.505 559.17 892.606 527.373 945.908 506.655L943.515 505.409L945.48 503.075C950.358 493.876 1010.37 484.498 1022.69 483.582Z"/><path fill="#042B80" d="M1091.24 524.279C1094.94 520.821 1093.38 521.29 1097.26 521.296C1100.65 523.531 1102.89 525.566 1106.93 525.403C1128.97 539.427 1153.16 569.346 1163.59 593.199C1165.94 598.849 1168.96 605.441 1170.63 611.202C1202.01 719.302 1100.65 804.326 997.901 794.947C879.354 784.126 843.286 657.653 929.789 583.029C986.419 534.175 1095.07 534.052 1143.8 594.221C1132.3 564.473 1116.24 543.534 1091.24 524.279Z"/><path fill="#FDFDFD" d="M970.643 659.086C966.547 659.174 963.967 659.724 960.765 657.371C954.986 649.842 958.94 634.338 965.868 628.603C974.029 625.732 1083.55 626.174 1093.17 628.772C1098.1 634.749 1092.78 652.746 1088.68 658.403L1089.01 659.414C1080.71 665.838 1030.23 662.875 1017.68 663.452C1011.79 663.722 1000.01 662.468 994.329 664.494C994.192 665.882 994.035 669.838 993.262 670.623L991.599 668.6C991.954 666.48 992.052 666.181 992.806 664.162C989.987 661.949 984.361 663.146 980.962 662.25L981.461 662.114C977.944 661.953 967.532 662.042 965.291 660.608L970.643 659.086Z"/><path fill="#031E6B" d="M970.643 659.086C977.033 658.23 997.304 658.784 1004.28 658.695C1032.23 658.335 1060.78 659.426 1088.68 658.403L1089.01 659.414C1080.71 665.838 1030.23 662.875 1017.68 663.452C1011.79 663.722 1000.01 662.468 994.329 664.494C994.192 665.882 994.035 669.838 993.262 670.623L991.599 668.6C991.954 666.48 992.052 666.181 992.806 664.162C989.987 661.949 984.361 663.146 980.962 662.25L981.461 662.114C977.944 661.953 967.532 662.042 965.291 660.608L970.643 659.086Z"/><path fill="#FDFDFD" d="M955.58 685.276L1035.73 685.128C1050.39 685.098 1065.54 684.939 1080.23 685.23C1083.73 685.299 1084.23 686.206 1086.03 688.297C1088.23 695.889 1084.4 712.01 1078.17 717.068C1039.07 718.451 998.554 716.474 959.332 717.272C954.856 717.363 951.727 717.292 948.244 714.577C944.741 708.058 949.374 700.791 949.931 693.849C950.264 689.699 952.271 687.682 955.58 685.276Z"/><path fill="#0BBBF2" d="M1080.04 508.655L1080.61 505.457C1078.74 502.893 1078.48 502.717 1077.74 499.711C1081.56 497.509 1099.73 502.83 1105.97 503.808C1112.12 505.171 1126.16 511.806 1133.29 514.521C1127.62 509.136 1127.03 509.871 1122.34 503.078C1131.42 507.427 1135.41 513.123 1143.74 505.242C1171.27 519.787 1192.53 537.031 1210.45 562.435L1215.41 570.739C1218.23 576.048 1221.03 581.479 1224.14 586.618C1230.09 588.487 1230.45 607.126 1236.3 612.197C1237.2 612.978 1237.06 624.642 1237.17 627.561L1238.64 624.307L1239.87 623.997C1241.65 630.982 1236.25 633.883 1238.05 640.754L1240.18 638.798L1239.43 639.468L1240.24 638.815C1241.87 643.775 1238.91 647.787 1239.29 652.493C1239.43 654.312 1242.45 661.274 1243.3 663.276C1241.74 665.442 1241.72 665.602 1239.7 667.261L1237.44 665.219C1236.94 674.751 1226.37 716.058 1219.64 721.319L1218.42 721.028C1218.26 721.261 1195.57 758.556 1196.18 756.263C1195.8 762.055 1187.81 771.079 1183.69 775.322L1178.97 775.337C1177.27 777.557 1172.47 782.262 1170.1 783.321L1164.43 784.631C1161.56 782.983 1161.88 781.17 1160.62 777.122C1161.22 776.216 1161.81 775.303 1162.39 774.384C1188.24 733.611 1198.25 696.474 1187.61 648.113C1185.01 636.271 1172.77 598.959 1163.59 593.199C1153.16 569.346 1128.97 539.427 1106.93 525.403C1102.37 520.992 1088.56 513.418 1082.65 510.001L1080.04 508.655Z"/><path fill="#63DBF8" d="M1080.04 508.655L1080.61 505.457C1078.74 502.893 1078.48 502.717 1077.74 499.711C1081.56 497.509 1099.73 502.83 1105.97 503.808C1111.37 509.501 1131.39 516.361 1138.78 521.22C1152.32 530.134 1191.36 561.627 1193.15 576.635L1192.15 579.452L1191.67 578.546C1186.89 569.485 1170.81 555.723 1162.41 549.93L1161.52 551.363C1164.44 560.517 1179.39 570.741 1181.34 576.1C1182.54 575.612 1182.75 575.516 1183.84 574.934C1186.73 575.908 1189.51 578.15 1189.87 581.344C1173.24 578.465 1166.15 567.021 1153.84 556.666C1139.3 544.438 1125.35 532.076 1109.37 521.651C1102.09 516.862 1090.94 505.853 1082.65 510.001L1080.04 508.655Z"/><path fill="#0280C9" d="M1133.29 514.521C1127.62 509.136 1127.03 509.871 1122.34 503.078C1131.42 507.427 1135.41 513.123 1143.74 505.242C1171.27 519.787 1192.53 537.031 1210.45 562.435L1215.41 570.739C1218.23 576.048 1221.03 581.479 1224.14 586.618C1228.05 597.737 1235.22 616.216 1235.24 627.354C1234.06 624.268 1233.1 621.271 1232.09 618.132L1232.31 619.86C1230.37 613.23 1221.88 583.236 1217.16 580.043L1215.82 580.525C1217.19 586.176 1219.4 598.318 1221.56 603.097L1220.57 604.731L1220.7 604.695C1218.5 599.92 1216.23 595.176 1213.89 590.464C1211.3 585.321 1203.22 570.195 1200.12 566.109C1186.05 547.613 1155.38 521.806 1133.29 514.521Z"/><path fill="#031E6B" d="M1224.14 586.618C1230.09 588.487 1230.45 607.126 1236.3 612.197C1237.2 612.978 1237.06 624.642 1237.17 627.561L1238.64 624.307L1239.87 623.997C1241.65 630.982 1236.25 633.883 1238.05 640.754L1240.18 638.798L1239.43 639.468L1240.24 638.815C1241.87 643.775 1238.91 647.787 1239.29 652.493C1239.43 654.312 1242.45 661.274 1243.3 663.276C1241.74 665.442 1241.72 665.602 1239.7 667.261L1237.44 665.219C1236.94 674.751 1226.37 716.058 1219.64 721.319L1218.42 721.028C1230.61 692.672 1241.62 658.672 1235.24 627.354C1235.22 616.216 1228.05 597.737 1224.14 586.618Z"/><path fill="#D8DCEA" d="M1196.18 756.263C1195.8 762.055 1187.81 771.079 1183.69 775.322L1178.97 775.337C1184.89 769.152 1190.63 762.791 1196.18 756.263Z"/><defs><linearGradient id="gradient_0" gradientUnits="userSpaceOnUse" x1="1085.1826" y1="484.5397" x2="1076.775" y2="508.70746"><stop offset="0" stop-color="#007AC4"/><stop offset="1" stop-color="#13A0D9"/></linearGradient></defs><path fill="url(#gradient_0)" d="M1022.69 483.582C1033.4 482.709 1041.41 482.666 1052.2 482.766C1084 483.364 1115.27 491.042 1143.74 505.242C1135.41 513.123 1131.42 507.427 1122.34 503.078C1127.03 509.871 1127.62 509.136 1133.29 514.521C1126.16 511.806 1112.12 505.171 1105.97 503.808C1099.73 502.83 1081.56 497.509 1077.74 499.711C1078.48 502.717 1078.74 502.893 1080.61 505.457L1080.04 508.655C1047.99 493.593 1026.61 492.159 992.306 492.699L993.333 491.83C1004.96 490.879 1014.64 487.086 1026.38 486.103L1026.78 484.616L1022.69 483.582Z"/><path fill="#16A3E4" d="M1022.69 483.582C1033.4 482.709 1041.41 482.666 1052.2 482.766L1053.21 484.299C1047.94 485.691 1031.7 487.082 1026.38 486.103L1026.78 484.616L1022.69 483.582Z"/><path fill="#031E6B" d="M945.48 503.075C950.358 493.876 1010.37 484.498 1022.69 483.582L1026.78 484.616L1026.38 486.103C1014.64 487.086 1004.96 490.879 993.333 491.83L992.306 492.699C1026.61 492.159 1047.99 493.593 1080.04 508.655L1082.65 510.001C1088.56 513.418 1102.37 520.992 1106.93 525.403C1102.89 525.566 1100.65 523.531 1097.26 521.296C1093.38 521.29 1094.94 520.821 1091.24 524.279C1087.36 521.586 1083.35 519.095 1079.22 516.816C1035.45 492.602 992.644 493.243 945.908 506.655L943.515 505.409L945.48 503.075Z"/><path fill="#0BBBF2" d="M945.48 503.075C950.358 493.876 1010.37 484.498 1022.69 483.582L1026.78 484.616L1026.38 486.103C1014.64 487.086 1004.96 490.879 993.333 491.83L992.306 492.699C977.849 494.412 959.053 497.67 945.48 503.075Z"/><path fill="#16A3E4" d="M1160.62 777.122C1161.88 781.17 1161.56 782.983 1164.43 784.631L1170.1 783.321C1162.18 792.458 1136.04 809.453 1125.21 814.63C1141.66 799.842 1146.74 794.715 1160.62 777.122Z"/><path fill="#FDFDFD" d="M720.379 502.962C753.223 502.27 786.077 502.237 818.922 502.862L816.245 513.645C818.06 518.344 812.693 546.811 810.137 549.137L809.122 545.546C806.351 551.315 810.845 553.925 807.275 557.47C802.513 562.198 800.575 587.871 798.721 589.498L796.812 588.935C793.649 594.455 796.188 600.409 795.35 605.963C795.027 608.105 792.567 614.187 791.677 616.328L790.862 613.606C784.461 628.803 783.247 649.662 775.837 665.243C774.576 667.895 777.47 673.541 774.857 678.265L773.753 675.708L773.355 676.055L775.362 677.492L772.859 676.818C769.543 684.069 772.225 688.341 770.858 694.408C770.604 695.537 768.586 696.935 768.072 701.663C772.706 709.107 788.068 697.067 796.044 708.043C796.035 713.742 796.021 736.364 795.17 741.228L795.176 737.377C794.86 741.514 794.408 750.765 793.423 754.376C797.791 759.585 794.37 764.58 795.439 771.131C790.27 777.454 774.406 776.371 766.543 776.523L766.301 780.535L764.91 780.941C764.133 779.287 764.518 778.67 764.907 776.833C762.537 776.731 760.167 776.599 757.8 776.435C754.635 776.243 749.789 776.398 746.52 776.423C742.972 781.459 743.591 788.003 743.472 794.23L741.452 791.788C740.241 795.609 735.007 819.398 733.892 820.986L733.851 820.59C732.349 825.512 726.205 848.94 724.209 851.509L722.676 851.831C720.621 852.621 715.99 853.496 713.856 853.305C702.503 852.289 638.055 855.713 632.28 851.804L632.152 848.379L630.846 846.784C631.278 841.531 631.658 839.808 633.029 834.695L633.25 835.049C638.372 821.527 638.712 798.23 644.45 791.868L645.063 793.855L645.677 794.064C645.124 790.602 644.577 791.028 646.043 788.972L647.023 789.142C647.141 787.731 647.292 786.322 647.478 784.919C647.96 781.205 647.31 782.09 649.422 780.457L648.446 778.753C645.638 778.15 644.816 778.336 641.902 778.537L640.987 777.408C644.099 777.081 647.216 776.817 650.339 776.618L650.457 775.506C648.116 774.956 635.028 776.395 630.316 776.412L631.872 778.299C628.255 778.582 622.885 779.024 619.258 778.384C616.995 777.986 614.355 775.8 611.378 775.844C600.677 776.003 516.781 775.383 514.419 777.348L514.723 779.404C509.571 778.81 503.742 778.121 498.606 777.911C493.26 777.692 494.681 779.212 491.221 782.401L490.284 782.101C492.073 780.274 493.498 779.214 494.213 776.784C477.77 770.292 437.199 789.291 428.3 772.085C427.62 767.003 441.25 727.134 444.115 722.049L445.404 722.272C453.372 714.512 473.29 699.294 482.572 691.887L556.478 633.291L653.48 556.065C674.962 538.775 698.208 519.067 720.379 502.962Z"/><path fill="#031E6B" d="M816.245 513.645C818.06 518.344 812.693 546.811 810.137 549.137L809.122 545.546C806.351 551.315 810.845 553.925 807.275 557.47C802.513 562.198 800.575 587.871 798.721 589.498L796.812 588.935C793.649 594.455 796.188 600.409 795.35 605.963C795.027 608.105 792.567 614.187 791.677 616.328L790.862 613.606C784.461 628.803 783.247 649.662 775.837 665.243C774.576 667.895 777.47 673.541 774.857 678.265L773.753 675.708L773.355 676.055L775.362 677.492L772.859 676.818C769.543 684.069 772.225 688.341 770.858 694.408C770.604 695.537 768.586 696.935 768.072 701.663C772.706 709.107 788.068 697.067 796.044 708.043C796.035 713.742 796.021 736.364 795.17 741.228L795.176 737.377C794.86 741.514 794.408 750.765 793.423 754.376C797.791 759.585 794.37 764.58 795.439 771.131C790.27 777.454 774.406 776.371 766.543 776.523L766.301 780.535L764.91 780.941C764.133 779.287 764.518 778.67 764.907 776.833C762.537 776.731 760.167 776.599 757.8 776.435C754.635 776.243 749.789 776.398 746.52 776.423C742.972 781.459 743.591 788.003 743.472 794.23L741.452 791.788C740.241 795.609 735.007 819.398 733.892 820.986L733.851 820.59C732.349 825.512 726.205 848.94 724.209 851.509L722.676 851.831C722.225 845.983 740.802 783.167 743.832 773.336C758.539 772.828 775.639 773.155 790.581 773.051C790.884 751.002 792.309 728.863 793.49 706.831L762.544 706.673C768.639 678.517 780.441 639.587 788.41 611.202C796.643 581.876 806.457 541.63 816.245 513.645Z"/><path fill="#031E6B" d="M632.152 848.379L630.846 846.784C631.278 841.531 631.658 839.808 633.029 834.695L633.25 835.049C638.372 821.527 638.712 798.23 644.45 791.868L645.063 793.855L645.677 794.064C645.124 790.602 644.577 791.028 646.043 788.972L647.023 789.142C647.141 787.731 647.292 786.322 647.478 784.919C647.96 781.205 647.31 782.09 649.422 780.457L648.446 778.753C645.638 778.15 644.816 778.336 641.902 778.537L640.987 777.408C644.099 777.081 647.216 776.817 650.339 776.618L650.457 775.506C648.116 774.956 635.028 776.395 630.316 776.412L631.872 778.299C628.255 778.582 622.885 779.024 619.258 778.384C616.995 777.986 614.355 775.8 611.378 775.844C600.677 776.003 516.781 775.383 514.419 777.348L514.723 779.404C509.571 778.81 503.742 778.121 498.606 777.911C493.26 777.692 494.681 779.212 491.221 782.401L490.284 782.101C492.073 780.274 493.498 779.214 494.213 776.784C477.77 770.292 437.199 789.291 428.3 772.085C427.62 767.003 441.25 727.134 444.115 722.049L445.404 722.272C441.43 737.573 433.823 757.821 428.645 773.281L654.731 773.122L640.924 820.019C638.594 828.041 635.186 841.117 632.152 848.379Z"/><defs><linearGradient id="gradient_1" gradientUnits="userSpaceOnUse" x1="634.40344" y1="646.32141" x2="673.61249" y2="700.67255"><stop offset="0" stop-color="#021C5C"/><stop offset="1" stop-color="#052F8D"/></linearGradient></defs><path fill="url(#gradient_1)" d="M704.96 593.407C706.163 596.352 675.456 695.819 672.2 706.921C637.78 706.424 602.858 706.99 568.306 706.677C567.615 706.258 568.024 706.603 567.61 705.231C609.821 669.374 661.409 627.677 704.96 593.407Z"/><path fill="#FDFDFD" d="M1596.61 506.75L1604.92 505.944C1608.55 506.244 1611.03 505.799 1613.57 507.666C1613.46 508.165 1613.24 509.386 1613.01 509.752L1613.22 511.486C1610.03 513.793 1597.43 520.762 1595.98 522.334L1596.19 524.528C1591.8 528.589 1582.28 533.881 1576.53 538.264C1561.2 549.952 1561.59 541.186 1554.97 560.909L1554.16 560.64L1553.74 553.613C1545.17 558.748 1538.94 566.584 1529.8 571.831C1522.25 576.167 1514.71 588.294 1508.21 594.056C1505.59 596.603 1499.68 596.775 1495.97 600.842C1497.08 602.198 1496.44 601.633 1497.91 602.543C1492.59 608.922 1465.24 630.047 1464.55 631.562L1465.92 632.275C1465.13 635.996 1445.07 656.537 1441.07 660.717C1438.89 662.99 1435.37 662.263 1429.44 669.769L1432.41 669.407L1432.03 670.749C1428.49 672.509 1425.63 673.47 1423.36 676.612L1424.47 678.638C1421.47 687.082 1413.2 688.41 1407.44 696.499C1408.48 696.725 1409.38 696.882 1410.43 697.05C1410.59 699.719 1410.16 700.017 1408.68 702.211C1405.97 703.918 1405.14 703.725 1401.81 703.972C1399.06 706.602 1396.72 711.658 1394.08 715.07C1375.18 739.439 1359.32 765.847 1344.05 792.603C1340.99 797.977 1331.74 814.658 1329.86 819.969L1331.59 820.63L1331.26 821.825L1328.93 822.015C1322.78 830.094 1328.6 838.309 1318.76 844.739C1314 847.846 1318.81 849.968 1313.37 853.542C1309.49 853.816 1303.24 853.427 1300.47 855.238C1299.63 856.745 1298.8 858.26 1297.99 859.781L1297.12 859.738L1297.35 858.704C1297.61 857.504 1297.77 856.562 1297.95 855.36L1296.19 855.531C1293.77 858.635 1295 857.912 1291.55 859.081L1291.1 858.12L1292.74 855.307C1290.41 854.909 1282.38 853.987 1281.07 853.492C1282.6 858.132 1286.95 856.825 1286.98 859.979L1284.99 861.507C1279.68 859.588 1281.12 855.9 1276.94 855.045C1271.6 853.957 1267.65 855.608 1261.96 853.609C1249.61 860.181 1234.67 850.514 1230.78 856.273C1231.59 859.773 1231.89 858.659 1230.45 861.168L1230.43 861.181C1226.46 859.827 1221.68 855.118 1219.53 854.644C1215.59 853.777 1207.94 854.661 1204.55 851.365L1204.96 850.483C1205.23 847.485 1209.08 840.06 1210.6 837.057C1264.18 731.324 1343.3 638.576 1443 573.861C1451.49 568.347 1460.9 563.398 1469.15 557.696L1468.76 556.413C1473.26 548.979 1528.79 527.62 1539.35 524.122C1538.4 524.434 1539.31 521.61 1539.38 521.479C1544.75 525.259 1546.36 520.806 1551.91 519.989C1554.33 519.632 1560.99 518.254 1562.91 516.65C1565.05 514.864 1565.19 516.578 1567.3 515.092C1549.16 511.763 1486.74 534.762 1477.75 531.528C1477.57 531.461 1477.39 531.376 1477.21 531.299C1485.39 528.005 1497.95 525.515 1506.66 523.216C1536.63 515.295 1565.96 510.79 1596.61 506.75Z"/><path fill="#031E6B" d="M1595.98 522.334L1596.19 524.528C1591.8 528.589 1582.28 533.881 1576.53 538.264C1561.2 549.952 1561.59 541.186 1554.97 560.909L1554.16 560.64L1553.74 553.613C1545.17 558.748 1538.94 566.584 1529.8 571.831C1522.25 576.167 1514.71 588.294 1508.21 594.056C1505.59 596.603 1499.68 596.775 1495.97 600.842C1497.08 602.198 1496.44 601.633 1497.91 602.543C1492.59 608.922 1465.24 630.047 1464.55 631.562L1465.92 632.275C1465.13 635.996 1445.07 656.537 1441.07 660.717C1438.89 662.99 1435.37 662.263 1429.44 669.769L1432.41 669.407L1432.03 670.749C1428.49 672.509 1425.63 673.47 1423.36 676.612L1424.47 678.638C1421.47 687.082 1413.2 688.41 1407.44 696.499C1408.48 696.725 1409.38 696.882 1410.43 697.05C1410.59 699.719 1410.16 700.017 1408.68 702.211C1405.97 703.918 1405.14 703.725 1401.81 703.972C1399.06 706.602 1396.72 711.658 1394.08 715.07C1375.18 739.439 1359.32 765.847 1344.05 792.603C1340.99 797.977 1331.74 814.658 1329.86 819.969L1331.59 820.63L1331.26 821.825L1328.93 822.015C1322.78 830.094 1328.6 838.309 1318.76 844.739C1314 847.846 1318.81 849.968 1313.37 853.542C1309.49 853.816 1303.24 853.427 1300.47 855.238C1299.63 856.745 1298.8 858.26 1297.99 859.781L1297.12 859.738L1297.35 858.704C1297.61 857.504 1297.77 856.562 1297.95 855.36L1296.19 855.531C1293.77 858.635 1295 857.912 1291.55 859.081L1291.1 858.12L1292.74 855.307C1290.41 854.909 1282.38 853.987 1281.07 853.492C1282.6 858.132 1286.95 856.825 1286.98 859.979L1284.99 861.507C1279.68 859.588 1281.12 855.9 1276.94 855.045C1271.6 853.957 1267.65 855.608 1261.96 853.609C1249.61 860.181 1234.67 850.514 1230.78 856.273C1231.59 859.773 1231.89 858.659 1230.45 861.168L1230.43 861.181C1226.46 859.827 1221.68 855.118 1219.53 854.644C1215.59 853.777 1207.94 854.661 1204.55 851.365L1204.96 850.483C1213.94 851.278 1232.65 850.85 1242.05 850.857L1311.62 850.854C1324.87 823.176 1336.74 798.731 1352.37 772.286C1398.8 694.993 1458.4 626.425 1528.47 569.687C1546.64 555.088 1575.4 533.224 1595.98 522.334Z"/><path fill="#042B80" d="M1596.61 506.75L1604.92 505.944C1608.55 506.244 1611.03 505.799 1613.57 507.666C1613.46 508.165 1613.24 509.386 1613.01 509.752C1575.16 515.898 1544.54 523.607 1508.75 538.781C1495.69 544.32 1480.77 552.925 1469.15 557.696L1468.76 556.413C1473.26 548.979 1528.79 527.62 1539.35 524.122C1538.4 524.434 1539.31 521.61 1539.38 521.479C1544.75 525.259 1546.36 520.806 1551.91 519.989C1554.33 519.632 1560.99 518.254 1562.91 516.65C1565.05 514.864 1565.19 516.578 1567.3 515.092C1549.16 511.763 1486.74 534.762 1477.75 531.528C1477.57 531.461 1477.39 531.376 1477.21 531.299C1485.39 528.005 1497.95 525.515 1506.66 523.216C1536.63 515.295 1565.96 510.79 1596.61 506.75Z"/><path fill="#FDFDFD" d="M1219.22 509.949C1231.2 508.586 1243.19 507.233 1255.17 505.959C1316.2 499.468 1377.62 501.158 1438.96 501.233C1492.36 500.98 1545.76 501.501 1599.15 502.797C1598.37 504.442 1598.02 505.596 1596.61 506.75C1565.96 510.79 1536.63 515.295 1506.66 523.216C1497.95 525.515 1485.39 528.005 1477.21 531.299C1469.61 531.852 1424.4 545.171 1414.38 547.753C1358.99 562.043 1300.89 576.913 1243.54 578.804C1236.06 553.683 1229.73 534.137 1219.22 509.949Z"/><path fill="#042B80" d="M1414.22 572.55C1416.72 576.868 1418.36 577.83 1419.81 583.066C1418.75 586.423 1418.55 585.68 1414.87 587.845L1414.36 588.393C1408.98 582.112 1409.36 579.639 1414.22 572.55Z"/><path fill="#042B80" d="M1994.21 1330.41C1997.66 1330.7 2002.6 1335.03 2003.69 1338.3C2004.28 1340.05 2002.98 1341.42 2002.1 1343.16C1996.26 1338.78 1992.96 1337.49 1994.21 1330.41Z"/><path fill="#042B80" d="M1421.46 1342.12C1424.75 1342.47 1425.82 1342.61 1428.07 1344.83C1428.55 1348.05 1426.09 1351.2 1424.32 1354.29C1422.21 1354.87 1423.3 1354.74 1420.93 1354.06C1420.05 1352.2 1421.4 1346.07 1421.46 1342.12Z"/><path fill="#042B80" d="M1482.67 980.968C1490.96 982.965 1492.12 985.27 1490.76 992.912C1489.93 992.867 1488.67 992.557 1487.81 992.383C1485.7 988.282 1483.82 985.445 1482.67 980.968Z"/><path fill="#D8DCEA" d="M1599.15 502.797C1603.49 502.726 1609 502.323 1613.03 503.562C1611.68 505.576 1607.44 505.593 1604.92 505.944L1596.61 506.75C1598.02 505.596 1598.37 504.442 1599.15 502.797Z"/></svg>